<svg width="16" height="16" viewBox="0 0 16 16" fill="none" xmlns="http://www.w3.org/2000/svg">
<path d="M10.034 0.716751L9.96876 0.65825C9.82452 0.544368 9.64348 0.487413 9.46001 0.498197C9.27654 0.508981 9.10342 0.586753 8.97351 0.716751L8.91501 0.782C8.80118 0.926127 8.74425 1.10704 8.75504 1.29038C8.76582 1.47372 8.84357 1.64671 8.97351 1.7765L9.94776 2.74925H5.74926L5.56926 2.75225C4.20955 2.79853 2.92095 3.37106 1.97523 4.3491C1.02951 5.32715 0.500585 6.63425 0.500011 7.99475C0.497842 9.03679 0.808495 10.0555 1.39176 10.919C1.50743 11.0807 1.6826 11.1899 1.87874 11.2224C2.07488 11.255 2.27592 11.2083 2.43764 11.0926C2.59935 10.977 2.7085 10.8018 2.74106 10.6056C2.77362 10.4095 2.72693 10.2085 2.61126 10.0468L2.51001 9.88325C2.17804 9.3136 2.00223 8.66646 2.00031 8.00714C1.99839 7.34782 2.17045 6.69967 2.4991 6.1281C2.82775 5.55653 3.30138 5.08178 3.87216 4.75176C4.44295 4.42175 5.09069 4.24815 5.75001 4.2485H9.94626L8.97351 5.22125L8.91501 5.2865C8.79323 5.43626 8.73394 5.62725 8.74951 5.81965C8.76508 6.01205 8.85431 6.19102 8.99859 6.31925C9.14288 6.44748 9.33108 6.51508 9.52398 6.50795C9.71688 6.50083 9.89958 6.41953 10.034 6.281L12.2885 4.02875L12.3463 3.9635C12.4601 3.81937 12.517 3.63846 12.5062 3.45512C12.4955 3.27178 12.4177 3.09879 12.2878 2.969L10.034 0.716751ZM14.5903 5.045C14.4942 4.92174 14.362 4.8316 14.2122 4.78718C14.0624 4.74277 13.9024 4.74631 13.7547 4.79731C13.607 4.84831 13.479 4.94421 13.3885 5.0716C13.298 5.19899 13.2495 5.35149 13.25 5.50775C13.25 5.6645 13.298 5.80925 13.379 5.9285C13.7519 6.4934 13.9649 7.14874 13.9953 7.82495C14.0257 8.50115 13.8724 9.17296 13.5517 9.76904C13.2309 10.3651 12.7548 10.8632 12.1737 11.2104C11.5926 11.5576 10.9284 11.741 10.2515 11.741H6.06051L7.03101 10.7735L7.09326 10.7015C7.1954 10.5692 7.25043 10.4066 7.24962 10.2395C7.2488 10.0723 7.19219 9.91028 7.08876 9.779L7.03101 9.713L6.95976 9.65C6.8273 9.54761 6.66441 9.49244 6.49699 9.49326C6.32957 9.49407 6.16722 9.55083 6.03576 9.6545L5.96976 9.713L3.71601 11.9653L3.65376 12.0365C3.55144 12.1688 3.4963 12.3316 3.49711 12.4989C3.49793 12.6662 3.55465 12.8284 3.65826 12.9598L3.71601 13.025L5.96976 15.2772L6.04101 15.3403C6.18581 15.4521 6.3665 15.5072 6.54907 15.4951C6.73163 15.483 6.90348 15.4045 7.03226 15.2746C7.16103 15.1446 7.23786 14.972 7.24826 14.7894C7.25867 14.6067 7.20194 14.4265 7.08876 14.2828L7.03101 14.2175L6.05301 13.2402H10.25L10.43 13.238C11.3681 13.2058 12.2803 12.9225 13.0717 12.4178C13.863 11.9131 14.5045 11.2054 14.9293 10.3684C15.3541 9.53146 15.5467 8.59587 15.4869 7.65917C15.4272 6.72247 15.1173 5.81894 14.5895 5.04275L14.5903 5.045Z" fill="white"/>
</svg>
